<?xml version="1.0" encoding="UTF-8" standalone="no"?>
<svg
   xmlns:dc="http://purl.org/dc/elements/1.1/"
   xmlns:cc="http://creativecommons.org/ns#"
   xmlns:rdf="http://www.w3.org/1999/02/22-rdf-syntax-ns#"
   xmlns:svg="http://www.w3.org/2000/svg"
   xmlns="http://www.w3.org/2000/svg"
   xmlns:sodipodi="http://sodipodi.sourceforge.net/DTD/sodipodi-0.dtd"
   xmlns:inkscape="http://www.inkscape.org/namespaces/inkscape"
   version="1.1"
   id="svg242"
   width="168"
   height="168"
   viewBox="0 0 168 168"
   sodipodi:docname="EasyWay.svg"
   inkscape:version="1.0.1 (3bc2e813f5, 2020-09-07)">
  <metadata
     id="metadata248">
    <rdf:RDF>
      <cc:Work
         rdf:about="">
        <dc:format>image/svg+xml</dc:format>
        <dc:type
           rdf:resource="http://purl.org/dc/dcmitype/StillImage" />
        <dc:title />
      </cc:Work>
    </rdf:RDF>
  </metadata>
  <defs
     id="defs246" />
  <sodipodi:namedview
     pagecolor="#ffffff"
     bordercolor="#666666"
     borderopacity="1"
     objecttolerance="10"
     gridtolerance="10"
     guidetolerance="10"
     inkscape:pageopacity="0"
     inkscape:pageshadow="2"
     inkscape:window-width="1600"
     inkscape:window-height="840"
     id="namedview244"
     showgrid="false"
     inkscape:zoom="2.8536809"
     inkscape:cx="69.818486"
     inkscape:cy="103.94879"
     inkscape:window-x="0"
     inkscape:window-y="28"
     inkscape:window-maximized="1"
     inkscape:current-layer="g250"
     inkscape:document-rotation="0" />
  <g
     inkscape:groupmode="layer"
     inkscape:label="Image"
     id="g250">
    <g
       id="g254">
      <path
         style="fill:#1e6323;stroke:none;stroke-width:1.33333"
         d="M 165.33333,85.333333 144,102.66667 l -37.33333,36 -21.333337,18.592 L 64,138.672 6.6666667,84 V 82.666667 L 62.286,26.7192 84,6.7211867 109.33333,25.333333 110.66667,24 V 21.333333 C 103.61467,15.960267 92.3716,-1.0936387 82.667733,0.50205467 75.226533,1.7256533 68.9948,12.313253 63.998933,17.333333 49.127867,32.2764 34.905867,47.7608 20,62.666667 15.341733,67.324933 2.0116933,76.598533 2.7160533,84 3.86644,96.0884 29.025467,111.9152 37.333333,120.0196 c 11.257734,10.98187 22.1228,22.35907 33.352934,33.36573 3.595866,3.52534 8.206,10.21334 13.313733,11.48667 6.9648,1.73733 17.0092,-12.548 21.33333,-16.872 l 40,-40 c 6.96267,-6.9628 15.90934,-13.5636 20,-22.666667 z M 84,4 86.666667,6.6666667 84,4 M 81.333333,5.3333333 68,21.333333 81.333333,5.3333333 M 94.666667,6.6666667 108,20 94.666667,6.6666667 M 72,8 53.333333,28 72,8 M 92,10.666667 101.33333,20 92,10.666667 m -26.666667,10.666666 -4,6.666667 4,-6.666667 m 45.333337,1.333334 -2.66667,4 2.66667,-4 M 114.66667,28 116,29.333333 Z M 116,28 114.66667,29.333333 126.66667,40 Z M 50.666667,29.333333 52,30.666667 50.666667,29.333333 m 64.000003,1.333334 6.66666,8 -6.66666,-8 M 56,32 57.333333,33.333333 56,32 m -2.666667,2.666667 -2.666666,4 2.666666,-4 M 125.33333,36 l 1.33334,4 -4,-1.333333 V 40 L 141.33333,57.333333 125.33333,36 M 48,40 20,69.333333 C 28.403867,63.4136 45.5476,50.117067 48,40 m -8,1.333333 -26.666667,28 C 21.453067,63.6136 37.627067,51.122533 40,41.333333 Z m 89.33333,1.333334 13.33334,14.666666 L 144,56 Z M 81.333333,44 l -6.666666,10.666667 10.666666,-9.333334 1.333334,4 z m -22.666666,12 10.666666,8 c -9.070533,12.485333 -36.422933,55.06627 -4,55.97947 3.542934,0.0997 7.1944,0.10013 10.666667,-0.68414 C 82.8192,117.75493 89.488267,114.512 96,112 v -1.33333 c -9.1352,0.0756 -23.561867,6.01493 -31.9012,1.29626 C 58.690533,108.9028 60.2292,103.2936 62.5412,98.6728 67.051733,89.657467 77.844933,89.17 86.666667,86.666667 V 85.333333 H 69.333333 C 73.232267,79.44 75.9548,70.982 80.864133,66.013333 88.8124,57.969333 109.29653,57.382267 120,56 113.9948,47.500267 95.663333,53.2588 86.666667,53.333333 l -1.333334,-8 C 75.011067,50.550667 71.242,55.965333 58.666667,56 Z m 28.4444,-4.4444 0.444533,0.8888 -0.444533,-0.8888 M 104,50.666667 V 52 h 10.66667 L 104,50.666667 M 90.666667,52 v 1.333333 h 6.666666 L 90.666667,52 m 26.666663,0 v 1.333333 l 4,2.666667 -4,-4 m -59.999997,2.666667 4,6.666666 L 62.666667,56 57.333333,54.666667 m 6.666667,0 V 56 h 6.666667 L 64,54.666667 M 114.66667,56 v 1.333333 h 4 l -4,-1.333333 m 28,0 L 144,57.333333 142.66667,56 M 100,58.666667 V 60 l 10.66667,-1.333333 H 100 m 45.33333,-1.333334 c -0.10666,7.134934 5.85067,11.7988 12,14.666667 l 1.33334,-1.333333 -8,-9.333334 6.66666,9.333334 z m 1.33334,1.333334 L 145.33333,60 l 12,10.666667 z M 92,60 v 1.333333 h 5.333333 L 92,60 M 62.666667,61.333333 64,62.666667 62.666667,61.333333 m 26.222266,0.4444 0.8888,0.444534 -0.8888,-0.444534 m -23.5556,0.888934 V 64 L 68,65.333333 l -5.333333,8 H 64 c 2.2644,-3.8148 5.337467,-7.495866 1.333333,-10.666666 m 19.5556,0.4444 0.8888,0.444533 -0.8888,-0.444533 M 80,64 77.333333,72 h 1.333334 l 4,-8 H 80 m -4,9.333333 -6.666667,12 5.333334,1.333334 v -1.333334 h -4 l 5.333333,-12 m -14.666667,1.333334 c -6.831066,11.5832 -24.382533,38.901063 -2.661466,45.796263 4.984666,1.5824 10.830266,0.8704 15.9948,0.8704 V 120 c -3.9452,0 -8.091734,0.3328 -12,-0.28493 C 34.471333,115.2584 61.4604,87.534533 61.333333,74.666667 M 1.3333333,81.333333 2.6666667,82.666667 1.3333333,81.333333 M 6.6666667,82.666667 8,84 6.6666667,82.666667 M 82.666667,84 v 1.333333 L 88,86.666667 82.666667,84 M 162.66667,84 164,85.333333 162.66667,84 M 84,86.666667 85.333333,88 84,86.666667 m 74.66667,0 -25.33334,26.666663 c 7.83334,-5.51826 23.04,-17.20813 25.33334,-26.666663 m 6.66666,0 L 160,93.333333 165.33333,86.666667 M 78.666667,88 v 1.333333 h 4 l -4,-1.333333 m -3.111067,1.777733 0.8888,0.444534 -0.8888,-0.444534 m -60.888933,0.888934 c 9.954,14.130803 25.8692,30.046003 40,40.000003 -9.954,-14.1308 -25.8692,-30.046 -40,-40.000003 M 69.333333,113.33333 V 112 c -13.6336,-2.13507 -6.134266,-18.398533 4,-20 -11.1828,-4.1944 -21.232266,20.0296 -4,21.33333 M 157.33333,94.666667 118.66667,134.66667 c 10.63733,-7.49307 35.592,-27.3168 38.66666,-40.000003 m -143.999997,2.666666 9.333334,9.333337 -9.333334,-9.333337 M 92,109.33333 v 1.33334 L 97.333333,112 92,109.33333 m -7.111067,1.77774 0.8888,0.44453 -0.8888,-0.44453 m -8,1.33333 0.8888,0.44453 -0.8888,-0.44453 M 93.333333,112 94.666667,113.33333 93.333333,112 m -62.666666,1.33333 C 39.238,125.5012 54.836667,143.69467 68,150.66667 v -1.33334 l -37.333333,-36 m 60,0 L 92,114.66667 90.666667,113.33333 m -3.111067,1.77774 0.8888,0.44453 -0.8888,-0.44453 m 43.11107,-0.4444 -4,5.33333 4,-5.33333 M 80,117.33333 v 1.33334 l 5.333333,-1.33334 H 80 m -3.111067,1.77774 0.8888,0.44453 -0.8888,-0.44453 M 120,125.33333 121.33333,126.66667 120,125.33333 m -45.333333,24 c 5.96,8.43067 11.774933,12.09867 18.666666,2.66667 -8.546533,5.46533 -10.9136,2.74 -18.666666,-2.66667 m 20,0 L 96,150.66667 94.666667,149.33333 M 100,152 98.666667,154.66667 100,152 M 72,154.66667 85.333333,168 72,154.66667 M 96,156 93.333333,160 96,156 m -5.333333,5.33333 -4,5.33334 z"
         id="path274" />
      <path
         style="fill:#1e6323;stroke:none;stroke-width:1.33333"
         d="M 165.33333,85.333333 144,102.66667 l -37.33333,36 -21.333337,18.592 L 64,138.672 6.6666667,84 V 82.666667 L 62.286,26.7192 84,6.7211867 109.33333,25.333333 110.66667,24 V 21.333333 C 103.61467,15.960267 92.3716,-1.0936387 82.667733,0.50205467 75.226533,1.7256533 68.9948,12.313253 63.998933,17.333333 49.127867,32.2764 34.905867,47.7608 20,62.666667 15.341733,67.324933 2.0116933,76.598533 2.7160533,84 3.86644,96.0884 29.025467,111.9152 37.333333,120.0196 c 11.257734,10.98187 22.1228,22.35907 33.352934,33.36573 3.595866,3.52534 8.206,10.21334 13.313733,11.48667 6.9648,1.73733 17.0092,-12.548 21.33333,-16.872 l 40,-40 c 6.96267,-6.9628 15.90934,-13.5636 20,-22.666667 z M 84,4 86.666667,6.6666667 84,4 M 81.333333,5.3333333 68,21.333333 81.333333,5.3333333 M 94.666667,6.6666667 108,20 94.666667,6.6666667 M 72,8 53.333333,28 72,8 M 92,10.666667 101.33333,20 92,10.666667 m -26.666667,10.666666 -4,6.666667 4,-6.666667 m 45.333337,1.333334 -2.66667,4 2.66667,-4 M 114.66667,28 116,29.333333 Z M 116,28 114.66667,29.333333 126.66667,40 Z M 50.666667,29.333333 52,30.666667 50.666667,29.333333 m 64.000003,1.333334 6.66666,8 -6.66666,-8 M 56,32 57.333333,33.333333 56,32 m -2.666667,2.666667 -2.666666,4 2.666666,-4 M 125.33333,36 l 1.33334,4 -4,-1.333333 V 40 L 141.33333,57.333333 125.33333,36 M 48,40 20,69.333333 C 28.403867,63.4136 45.5476,50.117067 48,40 m -8,1.333333 -26.666667,28 C 21.453067,63.6136 37.627067,51.122533 40,41.333333 Z m 89.33333,1.333334 13.33334,14.666666 L 144,56 Z M 81.333333,44 l -6.666666,10.666667 10.666666,-9.333334 1.333334,4 z m -22.666666,12 10.666666,8 c -9.070533,12.485333 -36.422933,55.06627 -4,55.97947 3.542934,0.0997 7.1944,0.10013 10.666667,-0.68414 C 82.8192,117.75493 89.488267,114.512 96,112 v -1.33333 c -9.1352,0.0756 -23.561867,6.01493 -31.9012,1.29626 C 58.690533,108.9028 60.2292,103.2936 62.5412,98.6728 67.051733,89.657467 77.844933,89.17 86.666667,86.666667 V 85.333333 H 69.333333 C 73.232267,79.44 75.9548,70.982 80.864133,66.013333 88.8124,57.969333 109.29653,57.382267 120,56 113.9948,47.500267 95.663333,53.2588 86.666667,53.333333 l -1.333334,-8 C 75.011067,50.550667 71.242,55.965333 58.666667,56 Z m 28.4444,-4.4444 0.444533,0.8888 -0.444533,-0.8888 M 104,50.666667 V 52 h 10.66667 L 104,50.666667 M 90.666667,52 v 1.333333 h 6.666666 L 90.666667,52 m 26.666663,0 v 1.333333 l 4,2.666667 -4,-4 m -59.999997,2.666667 4,6.666666 L 62.666667,56 57.333333,54.666667 m 6.666667,0 V 56 h 6.666667 L 64,54.666667 M 114.66667,56 v 1.333333 h 4 l -4,-1.333333 m 28,0 L 144,57.333333 142.66667,56 M 100,58.666667 V 60 l 10.66667,-1.333333 H 100 m 45.33333,-1.333334 c -0.10666,7.134934 5.85067,11.7988 12,14.666667 l 1.33334,-1.333333 -8,-9.333334 6.66666,9.333334 z m 1.33334,1.333334 L 145.33333,60 l 12,10.666667 z"
         id="path272" />
      <path
         style="fill:#1e6323;stroke:none;stroke-width:1.33333"
         d="M 165.33333,85.333333 144,102.66667 l -37.33333,36 -21.333337,18.592 L 64,138.672 6.6666667,84 V 82.666667 L 62.286,26.7192 84,6.7211867 109.33333,25.333333 110.66667,24 V 21.333333 C 103.61467,15.960267 92.3716,-1.0936387 82.667733,0.50205467 75.226533,1.7256533 68.9948,12.313253 63.998933,17.333333 49.127867,32.2764 34.905867,47.7608 20,62.666667 15.341733,67.324933 2.0116933,76.598533 2.7160533,84 3.86644,96.0884 29.025467,111.9152 37.333333,120.0196 c 11.257734,10.98187 22.1228,22.35907 33.352934,33.36573 3.595866,3.52534 8.206,10.21334 13.313733,11.48667 6.9648,1.73733 17.0092,-12.548 21.33333,-16.872 l 40,-40 c 6.96267,-6.9628 15.90934,-13.5636 20,-22.666667 z M 84,4 86.666667,6.6666667 84,4 M 81.333333,5.3333333 68,21.333333 81.333333,5.3333333 M 94.666667,6.6666667 108,20 94.666667,6.6666667 M 72,8 53.333333,28 72,8 M 92,10.666667 101.33333,20 92,10.666667 m -26.666667,10.666666 -4,6.666667 4,-6.666667 m 45.333337,1.333334 -2.66667,4 2.66667,-4 M 114.66667,28 116,29.333333 Z M 116,28 114.66667,29.333333 126.66667,40 Z M 50.666667,29.333333 52,30.666667 50.666667,29.333333 m 64.000003,1.333334 6.66666,8 -6.66666,-8 M 56,32 57.333333,33.333333 56,32 m -2.666667,2.666667 -2.666666,4 2.666666,-4 M 125.33333,36 l 1.33334,4 -4,-1.333333 V 40 L 141.33333,57.333333 125.33333,36 M 48,40 20,69.333333 C 28.403867,63.4136 45.5476,50.117067 48,40 m -8,1.333333 -26.666667,28 C 21.453067,63.6136 37.627067,51.122533 40,41.333333 Z m 89.33333,1.333334 13.33334,14.666666 L 144,56 Z M 81.333333,44 l -6.666666,10.666667 10.666666,-9.333334 1.333334,4 z m -22.666666,12 10.666666,8 c -9.070533,12.485333 -36.422933,55.06627 -4,55.97947 3.542934,0.0997 7.1944,0.10013 10.666667,-0.68414 C 82.8192,117.75493 89.488267,114.512 96,112 v -1.33333 c -9.1352,0.0756 -23.561867,6.01493 -31.9012,1.29626 C 58.690533,108.9028 60.2292,103.2936 62.5412,98.6728 67.051733,89.657467 77.844933,89.17 86.666667,86.666667 V 85.333333 H 69.333333 C 73.232267,79.44 75.9548,70.982 80.864133,66.013333 88.8124,57.969333 109.29653,57.382267 120,56 113.9948,47.500267 95.663333,53.2588 86.666667,53.333333 l -1.333334,-8 C 75.011067,50.550667 71.242,55.965333 58.666667,56 Z m 28.4444,-4.4444 0.444533,0.8888 -0.444533,-0.8888 M 104,50.666667 V 52 h 10.66667 L 104,50.666667 M 90.666667,52 v 1.333333 h 6.666666 L 90.666667,52 m 26.666663,0 v 1.333333 l 4,2.666667 -4,-4 m -59.999997,2.666667 4,6.666666 L 62.666667,56 57.333333,54.666667 m 6.666667,0 V 56 h 6.666667 L 64,54.666667 M 114.66667,56 v 1.333333 h 4 l -4,-1.333333 m 28,0 L 144,57.333333 142.66667,56 M 100,58.666667 V 60 l 10.66667,-1.333333 H 100 m 45.33333,-1.333334 c -0.10666,7.134934 5.85067,11.7988 12,14.666667 l 1.33334,-1.333333 -8,-9.333334 6.66666,9.333334 z"
         id="path270" />
      <path
         style="fill:#1e6323;stroke:none;stroke-width:1.33333"
         d="M 165.33333,85.333333 144,102.66667 l -37.33333,36 -21.333337,18.592 L 64,138.672 6.6666667,84 V 82.666667 L 62.286,26.7192 84,6.7211867 109.33333,25.333333 110.66667,24 V 21.333333 C 103.61467,15.960267 92.3716,-1.0936387 82.667733,0.50205467 75.226533,1.7256533 68.9948,12.313253 63.998933,17.333333 49.127867,32.2764 34.905867,47.7608 20,62.666667 15.341733,67.324933 2.0116933,76.598533 2.7160533,84 3.86644,96.0884 29.025467,111.9152 37.333333,120.0196 c 11.257734,10.98187 22.1228,22.35907 33.352934,33.36573 3.595866,3.52534 8.206,10.21334 13.313733,11.48667 6.9648,1.73733 17.0092,-12.548 21.33333,-16.872 l 40,-40 c 6.96267,-6.9628 15.90934,-13.5636 20,-22.666667 z M 84,4 86.666667,6.6666667 84,4 M 81.333333,5.3333333 68,21.333333 81.333333,5.3333333 M 94.666667,6.6666667 108,20 94.666667,6.6666667 M 72,8 53.333333,28 72,8 M 92,10.666667 101.33333,20 92,10.666667 m -26.666667,10.666666 -4,6.666667 4,-6.666667 m 45.333337,1.333334 -2.66667,4 2.66667,-4 M 114.66667,28 116,29.333333 Z M 116,28 114.66667,29.333333 126.66667,40 Z M 50.666667,29.333333 52,30.666667 50.666667,29.333333 m 64.000003,1.333334 6.66666,8 -6.66666,-8 M 56,32 57.333333,33.333333 56,32 m -2.666667,2.666667 -2.666666,4 2.666666,-4 M 125.33333,36 l 1.33334,4 -4,-1.333333 V 40 L 141.33333,57.333333 125.33333,36 M 48,40 20,69.333333 C 28.403867,63.4136 45.5476,50.117067 48,40 m -8,1.333333 -26.666667,28 C 21.453067,63.6136 37.627067,51.122533 40,41.333333 Z m 89.33333,1.333334 13.33334,14.666666 L 144,56 Z M 81.333333,44 l -6.666666,10.666667 10.666666,-9.333334 1.333334,4 z m -22.666666,12 10.666666,8 c -9.070533,12.485333 -36.422933,55.06627 -4,55.97947 3.542934,0.0997 7.1944,0.10013 10.666667,-0.68414 C 82.8192,117.75493 89.488267,114.512 96,112 v -1.33333 c -9.1352,0.0756 -23.561867,6.01493 -31.9012,1.29626 C 58.690533,108.9028 60.2292,103.2936 62.5412,98.6728 67.051733,89.657467 77.844933,89.17 86.666667,86.666667 V 85.333333 H 69.333333 C 73.232267,79.44 75.9548,70.982 80.864133,66.013333 88.8124,57.969333 109.29653,57.382267 120,56 113.9948,47.500267 95.663333,53.2588 86.666667,53.333333 l -1.333334,-8 C 75.011067,50.550667 71.242,55.965333 58.666667,56 Z"
         id="path268" />
      <path
         style="fill:#1e6323;stroke:none;stroke-width:1.33333"
         d="M 165.33333,85.333333 144,102.66667 l -37.33333,36 -21.333337,18.592 L 64,138.672 6.6666667,84 V 82.666667 L 62.286,26.7192 84,6.7211867 109.33333,25.333333 110.66667,24 V 21.333333 C 103.61467,15.960267 92.3716,-1.0936387 82.667733,0.50205467 75.226533,1.7256533 68.9948,12.313253 63.998933,17.333333 49.127867,32.2764 34.905867,47.7608 20,62.666667 15.341733,67.324933 2.0116933,76.598533 2.7160533,84 3.86644,96.0884 29.025467,111.9152 37.333333,120.0196 c 11.257734,10.98187 22.1228,22.35907 33.352934,33.36573 3.595866,3.52534 8.206,10.21334 13.313733,11.48667 6.9648,1.73733 17.0092,-12.548 21.33333,-16.872 l 40,-40 c 6.96267,-6.9628 15.90934,-13.5636 20,-22.666667 z M 84,4 86.666667,6.6666667 84,4 M 81.333333,5.3333333 68,21.333333 81.333333,5.3333333 M 94.666667,6.6666667 108,20 94.666667,6.6666667 M 72,8 53.333333,28 72,8 M 92,10.666667 101.33333,20 92,10.666667 m -26.666667,10.666666 -4,6.666667 4,-6.666667 m 45.333337,1.333334 -2.66667,4 2.66667,-4 M 114.66667,28 116,29.333333 Z M 116,28 114.66667,29.333333 126.66667,40 Z M 50.666667,29.333333 52,30.666667 50.666667,29.333333 m 64.000003,1.333334 6.66666,8 -6.66666,-8 M 56,32 57.333333,33.333333 56,32 m -2.666667,2.666667 -2.666666,4 2.666666,-4 M 125.33333,36 l 1.33334,4 -4,-1.333333 V 40 L 141.33333,57.333333 125.33333,36 M 48,40 20,69.333333 C 28.403867,63.4136 45.5476,50.117067 48,40 m -8,1.333333 -26.666667,28 C 21.453067,63.6136 37.627067,51.122533 40,41.333333 Z m 89.33333,1.333334 13.33334,14.666666 L 144,56 Z M 81.333333,44 l -6.666666,10.666667 10.666666,-9.333334 1.333334,4 z"
         id="path266" />
      <path
         style="fill:#1e6323;stroke:none;stroke-width:1.33333"
         d="M 165.33333,85.333333 144,102.66667 l -37.33333,36 -21.333337,18.592 L 64,138.672 6.6666667,84 V 82.666667 L 62.286,26.7192 84,6.7211867 109.33333,25.333333 110.66667,24 V 21.333333 C 103.61467,15.960267 92.3716,-1.0936387 82.667733,0.50205467 75.226533,1.7256533 68.9948,12.313253 63.998933,17.333333 49.127867,32.2764 34.905867,47.7608 20,62.666667 15.341733,67.324933 2.0116933,76.598533 2.7160533,84 3.86644,96.0884 29.025467,111.9152 37.333333,120.0196 c 11.257734,10.98187 22.1228,22.35907 33.352934,33.36573 3.595866,3.52534 8.206,10.21334 13.313733,11.48667 6.9648,1.73733 17.0092,-12.548 21.33333,-16.872 l 40,-40 c 6.96267,-6.9628 15.90934,-13.5636 20,-22.666667 z M 84,4 86.666667,6.6666667 84,4 M 81.333333,5.3333333 68,21.333333 81.333333,5.3333333 M 94.666667,6.6666667 108,20 94.666667,6.6666667 M 72,8 53.333333,28 72,8 M 92,10.666667 101.33333,20 92,10.666667 m -26.666667,10.666666 -4,6.666667 4,-6.666667 m 45.333337,1.333334 -2.66667,4 2.66667,-4 M 114.66667,28 116,29.333333 Z M 116,28 114.66667,29.333333 126.66667,40 Z M 50.666667,29.333333 52,30.666667 50.666667,29.333333 m 64.000003,1.333334 6.66666,8 -6.66666,-8 M 56,32 57.333333,33.333333 56,32 m -2.666667,2.666667 -2.666666,4 2.666666,-4 M 125.33333,36 l 1.33334,4 -4,-1.333333 V 40 L 141.33333,57.333333 125.33333,36 M 48,40 20,69.333333 C 28.403867,63.4136 45.5476,50.117067 48,40 m -8,1.333333 -26.666667,28 C 21.453067,63.6136 37.627067,51.122533 40,41.333333 Z m 89.33333,1.333334 13.33334,14.666666 L 144,56 Z"
         id="path264" />
      <path
         style="fill:#1e6323;stroke:none;stroke-width:1.33333"
         d="M 165.33333,85.333333 144,102.66667 l -37.33333,36 -21.333337,18.592 L 64,138.672 6.6666667,84 V 82.666667 L 62.286,26.7192 84,6.7211867 109.33333,25.333333 110.66667,24 V 21.333333 C 103.61467,15.960267 92.3716,-1.0936387 82.667733,0.50205467 75.226533,1.7256533 68.9948,12.313253 63.998933,17.333333 49.127867,32.2764 34.905867,47.7608 20,62.666667 15.341733,67.324933 2.0116933,76.598533 2.7160533,84 3.86644,96.0884 29.025467,111.9152 37.333333,120.0196 c 11.257734,10.98187 22.1228,22.35907 33.352934,33.36573 3.595866,3.52534 8.206,10.21334 13.313733,11.48667 6.9648,1.73733 17.0092,-12.548 21.33333,-16.872 l 40,-40 c 6.96267,-6.9628 15.90934,-13.5636 20,-22.666667 z M 84,4 86.666667,6.6666667 84,4 M 81.333333,5.3333333 68,21.333333 81.333333,5.3333333 M 94.666667,6.6666667 108,20 94.666667,6.6666667 M 72,8 53.333333,28 72,8 M 92,10.666667 101.33333,20 92,10.666667 m -26.666667,10.666666 -4,6.666667 4,-6.666667 m 45.333337,1.333334 -2.66667,4 2.66667,-4 M 114.66667,28 116,29.333333 Z M 116,28 114.66667,29.333333 126.66667,40 Z M 50.666667,29.333333 52,30.666667 50.666667,29.333333 m 64.000003,1.333334 6.66666,8 -6.66666,-8 M 56,32 57.333333,33.333333 56,32 m -2.666667,2.666667 -2.666666,4 2.666666,-4 M 125.33333,36 l 1.33334,4 -4,-1.333333 V 40 L 141.33333,57.333333 125.33333,36 M 48,40 20,69.333333 C 28.403867,63.4136 45.5476,50.117067 48,40 m -8,1.333333 -26.666667,28 C 21.453067,63.6136 37.627067,51.122533 40,41.333333 Z"
         id="path262" />
      <path
         style="fill:#1e6323;stroke:none;stroke-width:1.33333"
         d="M 165.33333,85.333333 144,102.66667 l -37.33333,36 -21.333337,18.592 L 64,138.672 6.6666667,84 V 82.666667 L 62.286,26.7192 84,6.7211867 109.33333,25.333333 110.66667,24 V 21.333333 C 103.61467,15.960267 92.3716,-1.0936387 82.667733,0.50205467 75.226533,1.7256533 68.9948,12.313253 63.998933,17.333333 49.127867,32.2764 34.905867,47.7608 20,62.666667 15.341733,67.324933 2.0116933,76.598533 2.7160533,84 3.86644,96.0884 29.025467,111.9152 37.333333,120.0196 c 11.257734,10.98187 22.1228,22.35907 33.352934,33.36573 3.595866,3.52534 8.206,10.21334 13.313733,11.48667 6.9648,1.73733 17.0092,-12.548 21.33333,-16.872 l 40,-40 c 6.96267,-6.9628 15.90934,-13.5636 20,-22.666667 z M 84,4 86.666667,6.6666667 84,4 M 81.333333,5.3333333 68,21.333333 81.333333,5.3333333 M 94.666667,6.6666667 108,20 94.666667,6.6666667 M 72,8 53.333333,28 72,8 M 92,10.666667 101.33333,20 92,10.666667 m -26.666667,10.666666 -4,6.666667 4,-6.666667 m 45.333337,1.333334 -2.66667,4 2.66667,-4 M 114.66667,28 116,29.333333 Z M 116,28 l -1.33333,1.333333 12,10.666667 z"
         id="path260" />
      <path
         style="fill:#1e6323;stroke:none;stroke-width:1.33333"
         d="M 165.33333,85.333333 144,102.66667 l -37.33333,36 -21.333337,18.592 L 64,138.672 6.6666667,84 V 82.666667 L 62.286,26.7192 84,6.7211867 109.33333,25.333333 110.66667,24 V 21.333333 C 103.61467,15.960267 92.3716,-1.0936387 82.667733,0.50205467 75.226533,1.7256533 68.9948,12.313253 63.998933,17.333333 49.127867,32.2764 34.905867,47.7608 20,62.666667 15.341733,67.324933 2.0116933,76.598533 2.7160533,84 3.86644,96.0884 29.025467,111.9152 37.333333,120.0196 c 11.257734,10.98187 22.1228,22.35907 33.352934,33.36573 3.595866,3.52534 8.206,10.21334 13.313733,11.48667 6.9648,1.73733 17.0092,-12.548 21.33333,-16.872 l 40,-40 c 6.96267,-6.9628 15.90934,-13.5636 20,-22.666667 z M 84,4 86.666667,6.6666667 84,4 M 81.333333,5.3333333 68,21.333333 81.333333,5.3333333 M 94.666667,6.6666667 108,20 94.666667,6.6666667 M 72,8 53.333333,28 72,8 M 92,10.666667 101.33333,20 92,10.666667 m -26.666667,10.666666 -4,6.666667 4,-6.666667 m 45.333337,1.333334 -2.66667,4 2.66667,-4 M 114.66667,28 116,29.333333 Z"
         id="path258" />
      <path
         style="fill:#1e6323;stroke:none;stroke-width:1.33333"
         d="M 165.33333,85.333333 144,102.66667 l -37.33333,36 -21.333337,18.592 L 64,138.672 6.6666667,84 V 82.666667 L 62.286,26.7192 84,6.7211867 109.33333,25.333333 110.66667,24 V 21.333333 C 103.61467,15.960267 92.3716,-1.0936387 82.667733,0.50205467 75.226533,1.7256533 68.9948,12.313253 63.998933,17.333333 49.127867,32.2764 34.905867,47.7608 20,62.666667 15.341733,67.324933 2.0116933,76.598533 2.7160533,84 3.86644,96.0884 29.025467,111.9152 37.333333,120.0196 c 11.257734,10.98187 22.1228,22.35907 33.352934,33.36573 3.595866,3.52534 8.206,10.21334 13.313733,11.48667 6.9648,1.73733 17.0092,-12.548 21.33333,-16.872 l 40,-40 c 6.96267,-6.9628 15.90934,-13.5636 20,-22.666667 z"
         id="path256" />
    </g>
  </g>
</svg>
